# xmcd CD database file
#
# Track frame offsets:
#	150
#	10895
#	22230
#	36870
#	47702
#	57814
#	72035
#	84360
#	99279
#	122557
#	134662
#	149845
#	162597
#	177732
#	191527
#	204612
#	218367
#	231107
#	246787
#	261675
#
# Disc length: 3656 seconds
#
# Revision: 4
# Processed by: cddbd v1.5.2PL0 Copyright (c) Steve Scherf et al.
# Submitted via: CDex 1.51
#
DISCID=2c0e4614
DTITLE=Aretha Franklin - The Queen In Waiting (Disc-1)
DYEAR=2002
DGENRE=Soul
TTITLE0=Nobody Like You
TTITLE1=Once In A While (A/K/A Please Answer Me)
TTITLE2=Maybe I'm A Fool
TTITLE3=Muddy Water
TTITLE4=Bill Bailey, Won't You Please Come Home? (Alternate Version)
TTITLE5=Hard Times (No One Knows Better Than I)
TTITLE6=Today I Sing The Blues
TTITLE7=Won't Be Long
TTITLE8=Nobody Knows The Way I Feel This Morning
TTITLE9=Evil Gal Blues
TTITLE10=Lee Cross
TTITLE11=Walk On By
TTITLE12=I Wonder (Where You Are Tonight)
TTITLE13=God Bless The Child
TTITLE14=Blue Holiday
TTITLE15=Looking Through A Tear
TTITLE16=Tiny Sparrow
TTITLE17=Here Today And Gone Tomorrow
TTITLE18=Little Brown Book
TTITLE19=Without The One You Love
EXTD=YEAR: 2002
EXTT0=
EXTT1=
EXTT2=
EXTT3=
EXTT4=
EXTT5=
EXTT6=
EXTT7=
EXTT8=
EXTT9=
EXTT10=
EXTT11=
EXTT12=
EXTT13=
EXTT14=
EXTT15=
EXTT16=
EXTT17=
EXTT18=
EXTT19=
PLAYORDER=
